<svg id="visual" viewBox="0 0 960 540" width="960" height="540" xmlns="http://www.w3.org/2000/svg" xmlns:xlink="http://www.w3.org/1999/xlink" version="1.1"><rect x="0" y="0" width="960" height="540" fill="#001122"></rect><defs><linearGradient id="grad1_0" x1="43.8%" y1="0%" x2="100%" y2="100%"><stop offset="14.444444444444446%" stop-color="#ff4200" stop-opacity="1"></stop><stop offset="85.55555555555554%" stop-color="#ff4200" stop-opacity="1"></stop></linearGradient></defs><defs><linearGradient id="grad1_1" x1="43.8%" y1="0%" x2="100%" y2="100%"><stop offset="14.444444444444446%" stop-color="#ff4200" stop-opacity="1"></stop><stop offset="85.55555555555554%" stop-color="#d40054" stop-opacity="1"></stop></linearGradient></defs><defs><linearGradient id="grad1_2" x1="43.8%" y1="0%" x2="100%" y2="100%"><stop offset="14.444444444444446%" stop-color="#831a6b" stop-opacity="1"></stop><stop offset="85.55555555555554%" stop-color="#d40054" stop-opacity="1"></stop></linearGradient></defs><defs><linearGradient id="grad1_3" x1="43.8%" y1="0%" x2="100%" y2="100%"><stop offset="14.444444444444446%" stop-color="#831a6b" stop-opacity="1"></stop><stop offset="85.55555555555554%" stop-color="#2e2455" stop-opacity="1"></stop></linearGradient></defs><defs><linearGradient id="grad1_4" x1="43.8%" y1="0%" x2="100%" y2="100%"><stop offset="14.444444444444446%" stop-color="#001122" stop-opacity="1"></stop><stop offset="85.55555555555554%" stop-color="#2e2455" stop-opacity="1"></stop></linearGradient></defs><defs><linearGradient id="grad2_0" x1="0%" y1="0%" x2="56.3%" y2="100%"><stop offset="14.444444444444446%" stop-color="#ff4200" stop-opacity="1"></stop><stop offset="85.55555555555554%" stop-color="#ff4200" stop-opacity="1"></stop></linearGradient></defs><defs><linearGradient id="grad2_1" x1="0%" y1="0%" x2="56.3%" y2="100%"><stop offset="14.444444444444446%" stop-color="#d40054" stop-opacity="1"></stop><stop offset="85.55555555555554%" stop-color="#ff4200" stop-opacity="1"></stop></linearGradient></defs><defs><linearGradient id="grad2_2" x1="0%" y1="0%" x2="56.3%" y2="100%"><stop offset="14.444444444444446%" stop-color="#d40054" stop-opacity="1"></stop><stop offset="85.55555555555554%" stop-color="#831a6b" stop-opacity="1"></stop></linearGradient></defs><defs><linearGradient id="grad2_3" x1="0%" y1="0%" x2="56.3%" y2="100%"><stop offset="14.444444444444446%" stop-color="#2e2455" stop-opacity="1"></stop><stop offset="85.55555555555554%" stop-color="#831a6b" stop-opacity="1"></stop></linearGradient></defs><defs><linearGradient id="grad2_4" x1="0%" y1="0%" x2="56.3%" y2="100%"><stop offset="14.444444444444446%" stop-color="#2e2455" stop-opacity="1"></stop><stop offset="85.55555555555554%" stop-color="#001122" stop-opacity="1"></stop></linearGradient></defs><g transform="translate(960, 0)"><path d="M0 486C-58.3 452.5 -116.6 418.9 -158.4 382.5C-200.2 346.1 -225.5 306.8 -277.9 277.9C-330.3 249 -409.8 230.6 -449 186C-488.2 141.4 -487.1 70.7 -486 0L0 0Z" fill="#0e1d3d"></path><path d="M0 388.8C-46.7 362 -93.3 335.1 -126.7 306C-160.2 276.9 -180.4 245.4 -222.3 222.3C-264.2 199.2 -327.8 184.5 -359.2 148.8C-390.6 113.1 -389.7 56.6 -388.8 0L0 0Z" fill="#572465"></path><path d="M0 291.6C-35 271.5 -70 251.3 -95.1 229.5C-120.1 207.6 -135.3 184.1 -166.7 166.7C-198.2 149.4 -245.9 138.3 -269.4 111.6C-292.9 84.8 -292.3 42.4 -291.6 0L0 0Z" fill="#ae0065"></path><path d="M0 194.4C-23.3 181 -46.7 167.6 -63.4 153C-80.1 138.4 -90.2 122.7 -111.2 111.2C-132.1 99.6 -163.9 92.2 -179.6 74.4C-195.3 56.6 -194.8 28.3 -194.4 0L0 0Z" fill="#f00b38"></path><path d="M0 97.2C-11.7 90.5 -23.3 83.8 -31.7 76.5C-40 69.2 -45.1 61.4 -55.6 55.6C-66.1 49.8 -82 46.1 -89.8 37.2C-97.6 28.3 -97.4 14.1 -97.2 0L0 0Z" fill="#ff4200"></path></g><g transform="translate(0, 540)"><path d="M0 -486C52.1 -455.9 104.2 -425.7 169.1 -408.4C234.1 -391 312 -386.5 343.7 -343.7C375.4 -300.8 360.9 -219.8 376.9 -156.1C393 -92.5 439.5 -46.2 486 0L0 0Z" fill="#0e1d3d"></path><path d="M0 -388.8C41.7 -364.7 83.3 -340.6 135.3 -326.7C187.3 -312.8 249.6 -309.2 274.9 -274.9C300.3 -240.7 288.7 -175.8 301.6 -124.9C314.4 -74 351.6 -37 388.8 0L0 0Z" fill="#572465"></path><path d="M0 -291.6C31.3 -273.5 62.5 -255.4 101.5 -245C140.5 -234.6 187.2 -231.9 206.2 -206.2C225.2 -180.5 216.5 -131.9 226.2 -93.7C235.8 -55.5 263.7 -27.7 291.6 0L0 0Z" fill="#ae0065"></path><path d="M0 -194.4C20.8 -182.3 41.7 -170.3 67.7 -163.3C93.6 -156.4 124.8 -154.6 137.5 -137.5C150.1 -120.3 144.4 -87.9 150.8 -62.5C157.2 -37 175.8 -18.5 194.4 0L0 0Z" fill="#f00b38"></path><path d="M0 -97.2C10.4 -91.2 20.8 -85.1 33.8 -81.7C46.8 -78.2 62.4 -77.3 68.7 -68.7C75.1 -60.2 72.2 -44 75.4 -31.2C78.6 -18.5 87.9 -9.2 97.2 0L0 0Z" fill="#ff4200"></path></g></svg>