<svg id="visual" viewBox="0 0 960 540" width="960" height="540" xmlns="http://www.w3.org/2000/svg" xmlns:xlink="http://www.w3.org/1999/xlink" version="1.1"><rect x="0" y="0" width="960" height="540" fill="#f9f9f9"></rect>
<path id="wavepathlite1" d="M0 110L22.8 112.2C45.7 114.3 91.3 118.7 137 114.3C182.7 110 228.3 97 274 90.2C319.7 83.3 365.3 82.7 411.2 84.5C457 86.3 503 90.7 548.8 99C594.7 107.3 640.3 119.7 686 118.8C731.7 118 777.3 104 823 98.2C868.7 92.3 914.3 94.7 937.2 95.8L960 97L960 0L937.2 0C914.3 0 868.7 0 823 0C777.3 0 731.7 0 686 0C640.3 0 594.7 0 548.8 0C503 0 457 0 411.2 0C365.3 0 319.7 0 274 0C228.3 0 182.7 0 137 0C91.3 0 45.7 0 22.8 0L0 0Z" fill="#f7770f"></path>
<path id="wavepathlite2" d="M0 71L22.8 72C45.7 73 91.3 75 137 78.7C182.7 82.3 228.3 87.7 274 86.5C319.7 85.3 365.3 77.7 411.2 79.7C457 81.7 503 93.3 548.8 96.7C594.7 100 640.3 95 686 95C731.7 95 777.3 100 823 97C868.7 94 914.3 83 937.2 77.5L960 72L960 0L937.2 0C914.3 0 868.7 0 823 0C777.3 0 731.7 0 686 0C640.3 0 594.7 0 548.8 0C503 0 457 0 411.2 0C365.3 0 319.7 0 274 0C228.3 0 182.7 0 137 0C91.3 0 45.7 0 22.8 0L0 0Z" fill="#fd612a"></path>
<path id="wavepathlite3" d="M0 47L22.8 48.7C45.7 50.3 91.3 53.7 137 59.3C182.7 65 228.3 73 274 75.5C319.7 78 365.3 75 411.2 73.5C457 72 503 72 548.8 69.5C594.7 67 640.3 62 686 57.8C731.7 53.7 777.3 50.3 823 53.8C868.7 57.3 914.3 67.7 937.2 72.8L960 78L960 0L937.2 0C914.3 0 868.7 0 823 0C777.3 0 731.7 0 686 0C640.3 0 594.7 0 548.8 0C503 0 457 0 411.2 0C365.3 0 319.7 0 274 0C228.3 0 182.7 0 137 0C91.3 0 45.7 0 22.8 0L0 0Z" fill="#ff4a3e"></path>
<path id="wavepathlite4" d="M0 38L22.8 39C45.7 40 91.3 42 137 43.2C182.7 44.3 228.3 44.7 274 44.8C319.7 45 365.3 45 411.2 43C457 41 503 37 548.8 38.7C594.7 40.3 640.3 47.7 686 49.3C731.7 51 777.3 47 823 44.2C868.7 41.3 914.3 39.7 937.2 38.8L960 38L960 0L937.2 0C914.3 0 868.7 0 823 0C777.3 0 731.7 0 686 0C640.3 0 594.7 0 548.8 0C503 0 457 0 411.2 0C365.3 0 319.7 0 274 0C228.3 0 182.7 0 137 0C91.3 0 45.7 0 22.8 0L0 0Z" fill="#ff2f52"></path>
<path id="wavepathlite5" d="M0 22L22.8 20.5C45.7 19 91.3 16 137 16C182.7 16 228.3 19 274 19.7C319.7 20.3 365.3 18.7 411.2 21.2C457 23.7 503 30.3 548.8 31.5C594.7 32.7 640.3 28.3 686 27.5C731.7 26.7 777.3 29.3 823 29.8C868.7 30.3 914.3 28.7 937.2 27.8L960 27L960 0L937.2 0C914.3 0 868.7 0 823 0C777.3 0 731.7 0 686 0C640.3 0 594.7 0 548.8 0C503 0 457 0 411.2 0C365.3 0 319.7 0 274 0C228.3 0 182.7 0 137 0C91.3 0 45.7 0 22.8 0L0 0Z" fill="#ff0066"></path>


<path d="M0 428L22.8 425.8C45.7 423.7 91.3 419.3 137 423.7C182.7 428 228.3 441 274 447.8C319.7 454.7 365.3 455.3 411.2 453.5C457 451.7 503 447.3 548.8 439C594.7 430.7 640.3 418.3 686 419.2C731.7 420 777.3 434 823 439.8C868.7 445.7 914.3 443.3 937.2 442.2L960 441L960 541L937.2 541C914.3 541 868.7 541 823 541C777.3 541 731.7 541 686 541C640.3 541 594.7 541 548.8 541C503 541 457 541 411.2 541C365.3 541 319.7 541 274 541C228.3 541 182.7 541 137 541C91.3 541 45.7 541 22.8 541L0 541Z" fill="#f7770f"></path><path d="M0 467L22.8 466C45.7 465 91.3 463 137 459.3C182.7 455.7 228.3 450.3 274 451.5C319.7 452.7 365.3 460.3 411.2 458.3C457 456.3 503 444.7 548.8 441.3C594.7 438 640.3 443 686 443C731.7 443 777.3 438 823 441C868.7 444 914.3 455 937.2 460.5L960 466L960 541L937.2 541C914.3 541 868.7 541 823 541C777.3 541 731.7 541 686 541C640.3 541 594.7 541 548.8 541C503 541 457 541 411.2 541C365.3 541 319.7 541 274 541C228.3 541 182.7 541 137 541C91.3 541 45.7 541 22.8 541L0 541Z" fill="#fd612a"></path><path d="M0 491L22.8 489.3C45.7 487.7 91.3 484.3 137 478.7C182.7 473 228.3 465 274 462.5C319.7 460 365.3 463 411.2 464.5C457 466 503 466 548.8 468.5C594.7 471 640.3 476 686 480.2C731.7 484.3 777.3 487.7 823 484.2C868.7 480.7 914.3 470.3 937.2 465.2L960 460L960 541L937.2 541C914.3 541 868.7 541 823 541C777.3 541 731.7 541 686 541C640.3 541 594.7 541 548.8 541C503 541 457 541 411.2 541C365.3 541 319.7 541 274 541C228.3 541 182.7 541 137 541C91.3 541 45.7 541 22.8 541L0 541Z" fill="#ff4a3e"></path><path d="M0 500L22.8 499C45.7 498 91.3 496 137 494.8C182.7 493.7 228.3 493.3 274 493.2C319.7 493 365.3 493 411.2 495C457 497 503 501 548.8 499.3C594.7 497.7 640.3 490.3 686 488.7C731.7 487 777.3 491 823 493.8C868.7 496.7 914.3 498.3 937.2 499.2L960 500L960 541L937.2 541C914.3 541 868.7 541 823 541C777.3 541 731.7 541 686 541C640.3 541 594.7 541 548.8 541C503 541 457 541 411.2 541C365.3 541 319.7 541 274 541C228.3 541 182.7 541 137 541C91.3 541 45.7 541 22.8 541L0 541Z" fill="#ff2f52"></path><path d="M0 516L22.8 517.5C45.7 519 91.3 522 137 522C182.7 522 228.3 519 274 518.3C319.7 517.7 365.3 519.3 411.2 516.8C457 514.3 503 507.7 548.8 506.5C594.7 505.3 640.3 509.7 686 510.5C731.7 511.3 777.3 508.7 823 508.2C868.7 507.7 914.3 509.3 937.2 510.2L960 511L960 541L937.2 541C914.3 541 868.7 541 823 541C777.3 541 731.7 541 686 541C640.3 541 594.7 541 548.8 541C503 541 457 541 411.2 541C365.3 541 319.7 541 274 541C228.3 541 182.7 541 137 541C91.3 541 45.7 541 22.8 541L0 541Z" fill="#ff0066"></path></svg>