<svg id="visual" viewBox="0 0 960 540" width="960" height="540" xmlns="http://www.w3.org/2000/svg" xmlns:xlink="http://www.w3.org/1999/xlink" version="1.1"><rect x="0" y="0" width="960" height="540" fill="#001122"></rect><path d="M0 148L22.8 146.3C45.7 144.7 91.3 141.3 137 135C182.7 128.7 228.3 119.3 274 115C319.7 110.7 365.3 111.3 411.2 126.3C457 141.3 503 170.7 548.8 188.3C594.7 206 640.3 212 686 195.7C731.7 179.3 777.3 140.7 823 140.8C868.7 141 914.3 180 937.2 199.5L960 219L960 0L937.2 0C914.3 0 868.7 0 823 0C777.3 0 731.7 0 686 0C640.3 0 594.7 0 548.8 0C503 0 457 0 411.2 0C365.3 0 319.7 0 274 0C228.3 0 182.7 0 137 0C91.3 0 45.7 0 22.8 0L0 0Z" fill="#C62368" stroke-linecap="round" stroke-linejoin="miter"></path>
<path d="M0 390L22.8 391.7C45.7 393.3 91.3 396.7 137 403C182.7 409.3 228.3 418.7 274 423C319.7 427.3 365.3 426.7 411.2 411.7C457 396.7 503 367.3 548.8 349.7C594.7 332 640.3 326 686 342.3C731.7 358.7 777.3 397.3 823 397.2C868.7 397 914.3 358 937.2 338.5L960 319L960 541L937.2 541C914.3 541 868.7 541 823 541C777.3 541 731.7 541 686 541C640.3 541 594.7 541 548.8 541C503 541 457 541 411.2 541C365.3 541 319.7 541 274 541C228.3 541 182.7 541 137 541C91.3 541 45.7 541 22.8 541L0 541Z" fill="#C62368" stroke-linecap="round" stroke-linejoin="miter"></path></svg>