<svg id="visual" viewBox="0 0 960 540" width="960" height="540" xmlns="http://www.w3.org/2000/svg" xmlns:xlink="http://www.w3.org/1999/xlink" version="1.1"><rect x="0" y="0" width="960" height="540" fill="#CCCCCC"></rect><defs><linearGradient id="grad1_0" x1="43.8%" y1="0%" x2="100%" y2="100%"><stop offset="14.444444444444446%" stop-color="#6600ff" stop-opacity="1"></stop><stop offset="85.55555555555554%" stop-color="#6600ff" stop-opacity="1"></stop></linearGradient></defs><defs><linearGradient id="grad1_1" x1="43.8%" y1="0%" x2="100%" y2="100%"><stop offset="14.444444444444446%" stop-color="#6600ff" stop-opacity="1"></stop><stop offset="85.55555555555554%" stop-color="#8f4cf4" stop-opacity="1"></stop></linearGradient></defs><defs><linearGradient id="grad1_2" x1="43.8%" y1="0%" x2="100%" y2="100%"><stop offset="14.444444444444446%" stop-color="#aa79e8" stop-opacity="1"></stop><stop offset="85.55555555555554%" stop-color="#8f4cf4" stop-opacity="1"></stop></linearGradient></defs><defs><linearGradient id="grad1_3" x1="43.8%" y1="0%" x2="100%" y2="100%"><stop offset="14.444444444444446%" stop-color="#aa79e8" stop-opacity="1"></stop><stop offset="85.55555555555554%" stop-color="#bea3db" stop-opacity="1"></stop></linearGradient></defs><defs><linearGradient id="grad1_4" x1="43.8%" y1="0%" x2="100%" y2="100%"><stop offset="14.444444444444446%" stop-color="#cccccc" stop-opacity="1"></stop><stop offset="85.55555555555554%" stop-color="#bea3db" stop-opacity="1"></stop></linearGradient></defs><defs><linearGradient id="grad2_0" x1="0%" y1="0%" x2="56.3%" y2="100%"><stop offset="14.444444444444446%" stop-color="#6600ff" stop-opacity="1"></stop><stop offset="85.55555555555554%" stop-color="#6600ff" stop-opacity="1"></stop></linearGradient></defs><defs><linearGradient id="grad2_1" x1="0%" y1="0%" x2="56.3%" y2="100%"><stop offset="14.444444444444446%" stop-color="#8f4cf4" stop-opacity="1"></stop><stop offset="85.55555555555554%" stop-color="#6600ff" stop-opacity="1"></stop></linearGradient></defs><defs><linearGradient id="grad2_2" x1="0%" y1="0%" x2="56.3%" y2="100%"><stop offset="14.444444444444446%" stop-color="#8f4cf4" stop-opacity="1"></stop><stop offset="85.55555555555554%" stop-color="#aa79e8" stop-opacity="1"></stop></linearGradient></defs><defs><linearGradient id="grad2_3" x1="0%" y1="0%" x2="56.3%" y2="100%"><stop offset="14.444444444444446%" stop-color="#bea3db" stop-opacity="1"></stop><stop offset="85.55555555555554%" stop-color="#aa79e8" stop-opacity="1"></stop></linearGradient></defs><defs><linearGradient id="grad2_4" x1="0%" y1="0%" x2="56.3%" y2="100%"><stop offset="14.444444444444446%" stop-color="#bea3db" stop-opacity="1"></stop><stop offset="85.55555555555554%" stop-color="#cccccc" stop-opacity="1"></stop></linearGradient></defs><g transform="translate(960, 0)"><path d="M0 486C-62.3 467.1 -124.5 448.3 -172.6 416.7C-220.6 385.1 -254.5 340.8 -303.3 303.3C-352.2 265.9 -416.1 235.4 -449 186C-481.9 136.6 -484 68.3 -486 0L0 0Z" fill="#c6b8d4"></path><path d="M0 388.8C-49.8 373.7 -99.6 358.6 -138.1 333.3C-176.5 308.1 -203.6 272.6 -242.7 242.7C-281.8 212.7 -332.9 188.3 -359.2 148.8C-385.6 109.3 -387.2 54.6 -388.8 0L0 0Z" fill="#b58ee1"></path><path d="M0 291.6C-37.4 280.3 -74.7 269 -103.6 250C-132.4 231 -152.7 204.5 -182 182C-211.3 159.6 -249.6 141.2 -269.4 111.6C-289.2 81.9 -290.4 41 -291.6 0L0 0Z" fill="#9d64ee"></path><path d="M0 194.4C-24.9 186.9 -49.8 179.3 -69 166.7C-88.3 154 -101.8 136.3 -121.3 121.3C-140.9 106.4 -166.4 94.2 -179.6 74.4C-192.8 54.6 -193.6 27.3 -194.4 0L0 0Z" fill="#7d32f9"></path><path d="M0 97.2C-12.5 93.4 -24.9 89.7 -34.5 83.3C-44.1 77 -50.9 68.2 -60.7 60.7C-70.4 53.2 -83.2 47.1 -89.8 37.2C-96.4 27.3 -96.8 13.7 -97.2 0L0 0Z" fill="#6600ff"></path></g><g transform="translate(0, 540)"><path d="M0 -486C54.5 -458.5 109.1 -431 170.7 -412.1C232.3 -393.1 301 -382.7 343.7 -343.7C386.3 -304.6 402.8 -236.9 422.2 -174.9C441.6 -112.8 463.8 -56.4 486 0L0 0Z" fill="#c6b8d4"></path><path d="M0 -388.8C43.6 -366.8 87.2 -344.8 136.5 -329.6C185.8 -314.5 240.8 -306.2 274.9 -274.9C309 -243.7 322.3 -189.5 337.8 -139.9C353.3 -90.3 371 -45.1 388.8 0L0 0Z" fill="#b58ee1"></path><path d="M0 -291.6C32.7 -275.1 65.4 -258.6 102.4 -247.2C139.4 -235.9 180.6 -229.6 206.2 -206.2C231.8 -182.8 241.7 -142.2 253.3 -104.9C265 -67.7 278.3 -33.9 291.6 0L0 0Z" fill="#9d64ee"></path><path d="M0 -194.4C21.8 -183.4 43.6 -172.4 68.3 -164.8C92.9 -157.2 120.4 -153.1 137.5 -137.5C154.5 -121.8 161.1 -94.8 168.9 -70C176.6 -45.1 185.5 -22.6 194.4 0L0 0Z" fill="#7d32f9"></path><path d="M0 -97.2C10.9 -91.7 21.8 -86.2 34.1 -82.4C46.5 -78.6 60.2 -76.5 68.7 -68.7C77.3 -60.9 80.6 -47.4 84.4 -35C88.3 -22.6 92.8 -11.3 97.2 0L0 0Z" fill="#6600ff"></path></g></svg>