<svg id="visual" viewBox="0 0 960 540" width="960" height="540" xmlns="http://www.w3.org/2000/svg" xmlns:xlink="http://www.w3.org/1999/xlink" version="1.1"><rect x="0" y="0" width="960" height="540" fill="#FFFFFF"></rect><defs><linearGradient id="grad1_0" x1="43.8%" y1="100%" x2="100%" y2="0%"><stop offset="14.444444444444446%" stop-color="#ff4200" stop-opacity="1"></stop><stop offset="85.55555555555554%" stop-color="#ff4200" stop-opacity="1"></stop></linearGradient></defs><defs><linearGradient id="grad1_1" x1="43.8%" y1="100%" x2="100%" y2="0%"><stop offset="14.444444444444446%" stop-color="#ff4200" stop-opacity="1"></stop><stop offset="85.55555555555554%" stop-color="#ff7a4a" stop-opacity="1"></stop></linearGradient></defs><defs><linearGradient id="grad1_2" x1="43.8%" y1="100%" x2="100%" y2="0%"><stop offset="14.444444444444446%" stop-color="#ffa885" stop-opacity="1"></stop><stop offset="85.55555555555554%" stop-color="#ff7a4a" stop-opacity="1"></stop></linearGradient></defs><defs><linearGradient id="grad1_3" x1="43.8%" y1="100%" x2="100%" y2="0%"><stop offset="14.444444444444446%" stop-color="#ffa885" stop-opacity="1"></stop><stop offset="85.55555555555554%" stop-color="#ffd4c1" stop-opacity="1"></stop></linearGradient></defs><defs><linearGradient id="grad1_4" x1="43.8%" y1="100%" x2="100%" y2="0%"><stop offset="14.444444444444446%" stop-color="#ffffff" stop-opacity="1"></stop><stop offset="85.55555555555554%" stop-color="#ffd4c1" stop-opacity="1"></stop></linearGradient></defs><defs><linearGradient id="grad2_0" x1="0%" y1="100%" x2="56.3%" y2="0%"><stop offset="14.444444444444446%" stop-color="#ff4200" stop-opacity="1"></stop><stop offset="85.55555555555554%" stop-color="#ff4200" stop-opacity="1"></stop></linearGradient></defs><defs><linearGradient id="grad2_1" x1="0%" y1="100%" x2="56.3%" y2="0%"><stop offset="14.444444444444446%" stop-color="#ff7a4a" stop-opacity="1"></stop><stop offset="85.55555555555554%" stop-color="#ff4200" stop-opacity="1"></stop></linearGradient></defs><defs><linearGradient id="grad2_2" x1="0%" y1="100%" x2="56.3%" y2="0%"><stop offset="14.444444444444446%" stop-color="#ff7a4a" stop-opacity="1"></stop><stop offset="85.55555555555554%" stop-color="#ffa885" stop-opacity="1"></stop></linearGradient></defs><defs><linearGradient id="grad2_3" x1="0%" y1="100%" x2="56.3%" y2="0%"><stop offset="14.444444444444446%" stop-color="#ffd4c1" stop-opacity="1"></stop><stop offset="85.55555555555554%" stop-color="#ffa885" stop-opacity="1"></stop></linearGradient></defs><defs><linearGradient id="grad2_4" x1="0%" y1="100%" x2="56.3%" y2="0%"><stop offset="14.444444444444446%" stop-color="#ffd4c1" stop-opacity="1"></stop><stop offset="85.55555555555554%" stop-color="#ffffff" stop-opacity="1"></stop></linearGradient></defs><g transform="translate(960, 540)"><path d="M-486 0C-452.5 -58.3 -418.9 -116.6 -382.5 -158.4C-346.1 -200.2 -306.8 -225.5 -277.9 -277.9C-249 -330.3 -230.6 -409.8 -186 -449C-141.4 -488.2 -70.7 -487.1 0 -486L0 0Z" fill="#ffeadf"></path><path d="M-388.8 0C-362 -46.7 -335.1 -93.3 -306 -126.7C-276.9 -160.2 -245.4 -180.4 -222.3 -222.3C-199.2 -264.2 -184.5 -327.8 -148.8 -359.2C-113.1 -390.6 -56.6 -389.7 0 -388.8L0 0Z" fill="#ffbea2"></path><path d="M-291.6 0C-271.5 -35 -251.3 -70 -229.5 -95.1C-207.6 -120.1 -184.1 -135.3 -166.7 -166.7C-149.4 -198.2 -138.3 -245.9 -111.6 -269.4C-84.8 -292.9 -42.4 -292.3 0 -291.6L0 0Z" fill="#ff9267"></path><path d="M-194.4 0C-181 -23.3 -167.6 -46.7 -153 -63.4C-138.4 -80.1 -122.7 -90.2 -111.2 -111.2C-99.6 -132.1 -92.2 -163.9 -74.4 -179.6C-56.6 -195.3 -28.3 -194.8 0 -194.4L0 0Z" fill="#ff602c"></path><path d="M-97.2 0C-90.5 -11.7 -83.8 -23.3 -76.5 -31.7C-69.2 -40 -61.4 -45.1 -55.6 -55.6C-49.8 -66.1 -46.1 -82 -37.2 -89.8C-28.3 -97.6 -14.1 -97.4 0 -97.2L0 0Z" fill="#ff4200"></path></g><g transform="translate(0, 0)"><path d="M486 0C455.9 52.1 425.7 104.2 408.4 169.1C391 234.1 386.5 312 343.7 343.7C300.8 375.4 219.8 360.9 156.1 376.9C92.5 393 46.2 439.5 0 486L0 0Z" fill="#ffeadf"></path><path d="M388.8 0C364.7 41.7 340.6 83.3 326.7 135.3C312.8 187.3 309.2 249.6 274.9 274.9C240.7 300.3 175.8 288.7 124.9 301.6C74 314.4 37 351.6 0 388.8L0 0Z" fill="#ffbea2"></path><path d="M291.6 0C273.5 31.3 255.4 62.5 245 101.5C234.6 140.5 231.9 187.2 206.2 206.2C180.5 225.2 131.9 216.5 93.7 226.2C55.5 235.8 27.7 263.7 0 291.6L0 0Z" fill="#ff9267"></path><path d="M194.4 0C182.3 20.8 170.3 41.7 163.3 67.7C156.4 93.6 154.6 124.8 137.5 137.5C120.3 150.1 87.9 144.4 62.5 150.8C37 157.2 18.5 175.8 0 194.4L0 0Z" fill="#ff602c"></path><path d="M97.2 0C91.2 10.4 85.1 20.8 81.7 33.8C78.2 46.8 77.3 62.4 68.7 68.7C60.2 75.1 44 72.2 31.2 75.4C18.5 78.6 9.2 87.9 0 97.2L0 0Z" fill="#ff4200"></path></g></svg>