<svg id="visual" viewBox="0 0 960 540" width="960" height="540" xmlns="http://www.w3.org/2000/svg" xmlns:xlink="http://www.w3.org/1999/xlink" version="1.1"><rect x="0" y="0" width="960" height="540" fill="#f9f9f9"></rect>
<path d="M0 150L22.8 155.8C45.7 161.7 91.3 173.3 137 171C182.7 168.7 228.3 152.3 274 158.5C319.7 164.7 365.3 193.3 411.2 205.5C457 217.7 503 213.3 548.8 206.8C594.7 200.3 640.3 191.7 686 181.8C731.7 172 777.3 161 823 165.3C868.7 169.7 914.3 189.3 937.2 199.2L960 209L960 0L937.2 0C914.3 0 868.7 0 823 0C777.3 0 731.7 0 686 0C640.3 0 594.7 0 548.8 0C503 0 457 0 411.2 0C365.3 0 319.7 0 274 0C228.3 0 182.7 0 137 0C91.3 0 45.7 0 22.8 0L0 0Z" fill="#4facf7"></path><path d="M0 128L22.8 126.3C45.7 124.7 91.3 121.3 137 122C182.7 122.7 228.3 127.3 274 128.5C319.7 129.7 365.3 127.3 411.2 125.8C457 124.3 503 123.7 548.8 122.3C594.7 121 640.3 119 686 128C731.7 137 777.3 157 823 155.7C868.7 154.3 914.3 131.7 937.2 120.3L960 109L960 0L937.2 0C914.3 0 868.7 0 823 0C777.3 0 731.7 0 686 0C640.3 0 594.7 0 548.8 0C503 0 457 0 411.2 0C365.3 0 319.7 0 274 0C228.3 0 182.7 0 137 0C91.3 0 45.7 0 22.8 0L0 0Z" fill="#2b9dfc"></path><path d="M0 98L22.8 97.2C45.7 96.3 91.3 94.7 137 94.5C182.7 94.3 228.3 95.7 274 97.2C319.7 98.7 365.3 100.3 411.2 103.7C457 107 503 112 548.8 110.2C594.7 108.3 640.3 99.7 686 99C731.7 98.3 777.3 105.7 823 105.7C868.7 105.7 914.3 98.3 937.2 94.7L960 91L960 0L937.2 0C914.3 0 868.7 0 823 0C777.3 0 731.7 0 686 0C640.3 0 594.7 0 548.8 0C503 0 457 0 411.2 0C365.3 0 319.7 0 274 0C228.3 0 182.7 0 137 0C91.3 0 45.7 0 22.8 0L0 0Z" fill="#008cff"></path><path d="M0 53L22.8 57.3C45.7 61.7 91.3 70.3 137 70.5C182.7 70.7 228.3 62.3 274 60.5C319.7 58.7 365.3 63.3 411.2 67.5C457 71.7 503 75.3 548.8 77.3C594.7 79.3 640.3 79.7 686 75.2C731.7 70.7 777.3 61.3 823 60.2C868.7 59 914.3 66 937.2 69.5L960 73L960 0L937.2 0C914.3 0 868.7 0 823 0C777.3 0 731.7 0 686 0C640.3 0 594.7 0 548.8 0C503 0 457 0 411.2 0C365.3 0 319.7 0 274 0C228.3 0 182.7 0 137 0C91.3 0 45.7 0 22.8 0L0 0Z" fill="#007aff"></path><path d="M0 42L22.8 45.7C45.7 49.3 91.3 56.7 137 57.5C182.7 58.3 228.3 52.7 274 51.8C319.7 51 365.3 55 411.2 55.8C457 56.7 503 54.3 548.8 52.3C594.7 50.3 640.3 48.7 686 50.7C731.7 52.7 777.3 58.3 823 55.7C868.7 53 914.3 42 937.2 36.5L960 31L960 0L937.2 0C914.3 0 868.7 0 823 0C777.3 0 731.7 0 686 0C640.3 0 594.7 0 548.8 0C503 0 457 0 411.2 0C365.3 0 319.7 0 274 0C228.3 0 182.7 0 137 0C91.3 0 45.7 0 22.8 0L0 0Z" fill="#0066ff"></path>
<path d="M0 388L22.8 382.2C45.7 376.3 91.3 364.7 137 367C182.7 369.3 228.3 385.7 274 379.5C319.7 373.3 365.3 344.7 411.2 332.5C457 320.3 503 324.7 548.8 331.2C594.7 337.7 640.3 346.3 686 356.2C731.7 366 777.3 377 823 372.7C868.7 368.3 914.3 348.7 937.2 338.8L960 329L960 541L937.2 541C914.3 541 868.7 541 823 541C777.3 541 731.7 541 686 541C640.3 541 594.7 541 548.8 541C503 541 457 541 411.2 541C365.3 541 319.7 541 274 541C228.3 541 182.7 541 137 541C91.3 541 45.7 541 22.8 541L0 541Z" fill="#6600ff"></path><path d="M0 410L22.8 411.7C45.7 413.3 91.3 416.7 137 416C182.7 415.3 228.3 410.7 274 409.5C319.7 408.3 365.3 410.7 411.2 412.2C457 413.7 503 414.3 548.8 415.7C594.7 417 640.3 419 686 410C731.7 401 777.3 381 823 382.3C868.7 383.7 914.3 406.3 937.2 417.7L960 429L960 541L937.2 541C914.3 541 868.7 541 823 541C777.3 541 731.7 541 686 541C640.3 541 594.7 541 548.8 541C503 541 457 541 411.2 541C365.3 541 319.7 541 274 541C228.3 541 182.7 541 137 541C91.3 541 45.7 541 22.8 541L0 541Z" fill="#4f34ff"></path><path d="M0 440L22.8 440.8C45.7 441.7 91.3 443.3 137 443.5C182.7 443.7 228.3 442.3 274 440.8C319.7 439.3 365.3 437.7 411.2 434.3C457 431 503 426 548.8 427.8C594.7 429.7 640.3 438.3 686 439C731.7 439.7 777.3 432.3 823 432.3C868.7 432.3 914.3 439.7 937.2 443.3L960 447L960 541L937.2 541C914.3 541 868.7 541 823 541C777.3 541 731.7 541 686 541C640.3 541 594.7 541 548.8 541C503 541 457 541 411.2 541C365.3 541 319.7 541 274 541C228.3 541 182.7 541 137 541C91.3 541 45.7 541 22.8 541L0 541Z" fill="#3849ff"></path><path d="M0 485L22.8 480.7C45.7 476.3 91.3 467.7 137 467.5C182.7 467.3 228.3 475.7 274 477.5C319.7 479.3 365.3 474.7 411.2 470.5C457 466.3 503 462.7 548.8 460.7C594.7 458.7 640.3 458.3 686 462.8C731.7 467.3 777.3 476.7 823 477.8C868.7 479 914.3 472 937.2 468.5L960 465L960 541L937.2 541C914.3 541 868.7 541 823 541C777.3 541 731.7 541 686 541C640.3 541 594.7 541 548.8 541C503 541 457 541 411.2 541C365.3 541 319.7 541 274 541C228.3 541 182.7 541 137 541C91.3 541 45.7 541 22.8 541L0 541Z" fill="#2059ff"></path><path d="M0 496L22.8 492.3C45.7 488.7 91.3 481.3 137 480.5C182.7 479.7 228.3 485.3 274 486.2C319.7 487 365.3 483 411.2 482.2C457 481.3 503 483.7 548.8 485.7C594.7 487.7 640.3 489.3 686 487.3C731.7 485.3 777.3 479.7 823 482.3C868.7 485 914.3 496 937.2 501.5L960 507L960 541L937.2 541C914.3 541 868.7 541 823 541C777.3 541 731.7 541 686 541C640.3 541 594.7 541 548.8 541C503 541 457 541 411.2 541C365.3 541 319.7 541 274 541C228.3 541 182.7 541 137 541C91.3 541 45.7 541 22.8 541L0 541Z" fill="#0066ff"></path></svg>